<svg xmlns="http://www.w3.org/2000/svg" xmlns:xlink="http://www.w3.org/1999/xlink" width="240" height="262" viewBox="0 0 240 262">
  <defs>
    <circle id="joelle-a" cx="120" cy="120" r="120"/>
    <path id="joelle-c" d="M12,160 L-3.19744231e-14,160 L-3.19744231e-14,-1.42108547e-14 L264,-1.42108547e-14 L264,160 L252,160 C252,226.27417 198.27417,280 132,280 C65.72583,280 12,226.27417 12,160 Z"/>
    <path id="joelle-e" d="M124,144.610951 L124,163 L128,163 C167.764502,163 200,195.235498 200,235 L200,244 L0,244 L0,235 C-4.86974701e-15,195.235498 32.235498,163 72,163 L76,163 L76,144.610951 C58.7626345,136.422372 46.3722246,119.687011 44.3051388,99.8812385 C38.4803105,99.0577866 34,94.0521096 34,88 L34,74 C34,68.0540074 38.3245733,63.1180731 44,62.1659169 L44,56 C44,25.072054 69.072054,5.68137151e-15 100,0 C130.927946,-5.68137151e-15 156,25.072054 156,56 L156,62.1659169 C161.675427,63.1180731 166,68.0540074 166,74 L166,88 C166,94.0521096 161.51969,99.0577866 155.694861,99.8812385 C153.627775,119.687011 141.237365,136.422372 124,144.610951 Z"/>
    <path id="joelle-g" d="M165.624032,29.2681342 C202.760022,32.1373245 232,63.1798426 232,101.051724 L232,110 L32,110 L32,101.051724 C32,62.8348009 61.7752018,31.5722494 99.3929298,29.1967444 C99.1342224,30.2735458 99,31.3767131 99,32.5 C99,44.3741221 113.998461,54 132.5,54 C151.001539,54 166,44.3741221 166,32.5 C166,31.4015235 165.871641,30.3222877 165.624025,29.2681336 Z"/>
    <rect id="joelle-i" width="264" height="280"/>
    <path id="joelle-k" d="M133.506381,81.3351151 C132.730185,81.0524853 131.954509,80.7493055 131.18005,80.4258987 C130.794121,80.3201038 130.400422,80.233095 130,80.1659169 L130,79.9170491 C117.224186,74.2337047 104.877881,63.0705152 96.1104311,47.8848473 C93.1752556,42.8009742 90.8310687,37.5951441 89.0661426,32.3970356 C80.4313947,42.9409152 67.7445474,53.6023901 52.3415164,62.4953343 C42.777598,68.0170651 33.1467898,72.2910056 24,75.2659587 L24,137.245847 C29.6015372,148.317951 38.7726252,157.277407 50,162.610951 L50,181 L46,181 C38.3271796,181 30.9346808,182.200199 24,184.423101 L24,230 C24,244.105888 13.5691766,255.775526 0,257.716445 L0,197.608051 L0,74 C-7.10542736e-15,33.1309285 33.1309285,7.10542736e-15 74,0 C114.869071,-7.10542736e-15 148,33.1309285 148,74 L148,197.608051 C135.525121,187.236892 119.490913,181 102,181 L98,181 L98,162.610951 C115.530782,154.282984 128.048193,137.114792 129.791419,116.867187 C135.569129,116.002364 140,111.018625 140,105 L140,92 C140,87.3574737 137.363649,83.3307002 133.506381,81.3351151 Z"/>
  </defs>
  <g fill="none" fill-rule="evenodd" transform="translate(-12 -18)">
    <g transform="translate(12 40)">
      <mask id="joelle-b" fill="#fff">
        <use xlink:href="#joelle-a"/>
      </mask>
      <use fill="#E6E6E6" xlink:href="#joelle-a"/>
      <g fill="#FF488E" mask="url(#joelle-b)">
        <rect width="240" height="240"/>
      </g>
    </g>
    <mask id="joelle-d" fill="#fff">
      <use xlink:href="#joelle-c"/>
    </mask>
    <g mask="url(#joelle-d)">
      <g transform="translate(32 36)">
        <mask id="joelle-f" fill="#fff">
          <use xlink:href="#joelle-e"/>
        </mask>
        <use fill="#D0C6AC" xlink:href="#joelle-e"/>
        <g fill="#EDB98A" mask="url(#joelle-f)">
          <rect width="264" height="244" transform="translate(-32)"/>
        </g>
        <path fill="#000" fill-opacity=".1" d="M156,94 L156,102 C156,132.927946 130.927946,158 100,158 C69.072054,158 44,132.927946 44,102 L44,94 C44,124.927946 69.072054,150 100,150 C130.927946,150 156,124.927946 156,94 Z" mask="url(#joelle-f)"/>
      </g>
      <g transform="translate(0 170)">
        <mask id="joelle-h" fill="#fff">
          <use xlink:href="#joelle-g"/>
        </mask>
        <use fill="#E6E6E6" xlink:href="#joelle-g"/>
        <g fill="#5199E4" mask="url(#joelle-h)">
          <rect width="264" height="110"/>
        </g>
        <g mask="url(#joelle-h)">
          <g transform="translate(106 60)">
            <path fill="#FFF" d="M34.7804613 27.7365051C32.3910217 30.3933795 29.9226048 32.9801662 27.4446301 35.5565142 28.4300853 32.0044048 29.1846452 27.9785814 30.6489944 24.5994547 31.0655115 23.6371144 30.7485963 23.5153306 31.576097 23.1057395 32.1847753 22.8045111 33.6536519 23.1494823 34.3825567 23.1678741 35.9404713 23.2066461 37.5335988 23.3597457 39.0789374 23.1186635 37.6281703 24.6436945 36.1869609 26.1712109 34.7804613 27.7365051M19.5162179 31.798118C16.8174087 28.5164183 14.1321816 25.2302449 10.8578947 22.4814113 12.146683 22.6176103 13.5536857 22.4376686 14.8163159 22.687201 16.7595591 23.0714412 16.6534177 23.6778747 17.6358547 25.6458009 19.0866218 28.5522078 20.5248129 31.434755 21.6858291 34.4689106 20.9750337 33.5692019 20.2446197 32.6844056 19.5162179 31.798118M10.4182378 19.266817C11.3810563 17.6920783 11.5616476 16.294796 13.3373785 15.4865494 15.3988361 14.5480688 18.6379102 14.7454082 20.8256308 14.5709343 19.4553501 16.093977 17.7887788 17.6736865 17.2223558 19.6928116 16.3480725 17.9749149 15.2599971 16.5189775 13.5521766 15.5223389 13.3368755 15.4159645 14.7101745 20.0725781 14.8897597 20.3926954 13.1743936 20.2967597 11.3684803 19.9850926 9.66518708 20.3012334 9.916204 19.9562622 10.1672209 19.611291 10.4182378 19.266817M26.8243819 14.2592673C28.4154971 14.2945597 29.9940364 14.4183318 31.563521 14.6783029 30.2968665 16.353451 29.9150592 18.3104416 29.4653415 20.3086895 28.9869505 18.0509676 27.2564932 15.9473394 25.7312761 14.2607585 26.095477 14.2602615 26.4596779 14.2597644 26.8243819 14.2592673M23.3257392 15.3334498C23.5601558 15.1748824 27.7826729 20.4190405 28.3923573 20.889275 25.0798394 20.8813217 21.7743641 20.7192748 18.4658705 20.5736313 20.3728949 19.0868752 21.4886374 16.8863171 23.3257392 15.3334498M26.0124754 32.4289082C25.6105465 33.7779741 25.2352788 35.1369815 24.797634 36.4756088 23.2432407 31.7444337 20.9357965 27.288142 18.7898282 22.8020257 22.1295103 22.8900083 25.465671 23.0107979 28.8058561 23.0575231 27.9864041 26.2164449 26.9441054 29.3032906 26.0124754 32.4289082M33.2416622 14.9656131C34.5188805 16.093977 36.338879 18.4063774 36.9284418 19.1833081 36.9867944 19.260355 37.0461531 19.3369048 37.1070209 19.4124604 37.3177947 19.6744198 38.0733606 20.6680759 38.3701542 21.0567898 36.1426934 20.8306199 33.8251885 20.9270528 31.5901821 20.9066727 32.0881916 18.8527521 32.6938517 16.8952645 32.1737084 14.7787123 32.5308668 14.8363732 32.886516 14.8985078 33.2416622 14.9656131M40.8898811 20.5830758C38.7323429 17.9068154 36.5199733 13.3247633 33.025858 12.5055811 29.5538765 11.6918667 25.478247 12.0517501 21.9519372 12.2754346 18.8773572 12.4702886 13.8690917 12.0721303 11.1572035 13.8690622 9.76378291 14.7921334 8.73154499 16.8738902 8.2491297 18.4202955 7.81450321 19.8131041 8.51523782 20.7048596 7.00259677 20.7048596 6.90651615 20.7048596 9.50672951 24.3777585 9.81308082 24.66656 12.0853121 26.8064748 14.2574385 28.8688456 16.2701013 31.2642577 19.1047312 34.6379166 21.6747622 39.6022206 25.414864 41 24.7292206 40.6609938 28.2067356 38.0334469 28.6242587 37.5811072 30.7355173 35.2930636 32.8709217 33.0268914 34.9967685 30.7517718 36.9349813 28.6779682 39.0472459 26.7209776 40.9271061 24.6004489 42.361776 22.9824645 42.3658003 22.4262358 40.8898811 20.5830758M6.99858316 11.9999257C7.04159508 12.0142408 6.09038895 9.95483812 6.17394084 10.0812061 5.69932656 9.36248835 5.12830624 8.8402333 4.43566602 8.35351923 3.70792411 7.84261755.1270582 7.25421678 0 7 1.49355183 9.65224611 4.16721231 11.1276907 6.99858316 11.9999257M22.3553325 7.19614224C22.5279973 7.84840006 22.7925782 8.44932951 23.1490753 8.99893058 23.2186566 9.07737584 24.0076748 4.81518326 23.9999436 4.45201075 23.9866286 3.8317121 23.6120919 0 22.814054 0 21.4769753 0 22.1397162 6.46931298 22.3553325 7.19614224M48.969198 5C45.977552 5 39.2896081 10.8535875 40.0615528 13.9997703 40.0673207 14.0103781 40.50905 13.6497123 40.4129174 13.7172166 40.4321439 13.7032335 40.4508897 13.6887683 40.4691549 13.6738209 41.7405084 12.649202 43.1873037 11.6544779 44.4605798 10.4683308 45.3723974 9.61874094 46.4476403 8.85642448 47.2772645 7.92727594 47.3618612 7.83276992 49.2628831 5 48.969198 5"/>
          </g>
        </g>
      </g>
      <g fill="#000" transform="translate(76 82)">
        <path fill-opacity=".7" d="M40,15 C40,22.7319865 46.2680135,29 54,29 C61.7319865,29 68,22.7319865 68,15" transform="translate(2 52)"/>
        <path fill-opacity=".16" d="M16,8 C16,12.418278 21.372583,16 28,16 C34.627417,16 40,12.418278 40,8" transform="translate(28 40)"/>
        <g fill-opacity=".6" transform="translate(0 8)">
          <circle cx="30" cy="22" r="6"/>
          <circle cx="82" cy="22" r="6"/>
        </g>
        <g fill-opacity=".6" transform="translate(12 6)">
          <path fill-rule="nonzero" d="M3.63024536,11.1585767 C7.54515501,5.64986673 18.2779197,2.56083721 27.5230268,4.83118046 C28.5957248,5.0946055 29.6788665,4.43856013 29.9422916,3.36586212 C30.2057166,2.2931641 29.5496712,1.21002236 28.4769732,0.94659732 C17.7403633,-1.69001789 5.31209962,1.88699832 0.369754639,8.84142326 C-0.270109626,9.74178291 -0.0589363917,10.9903811 0.84142326,11.6302454 C1.74178291,12.2701096 2.9903811,12.0589364 3.63024536,11.1585767 Z"/>
          <path fill-rule="nonzero" d="M61.6302454,11.1585767 C65.545155,5.64986673 76.2779197,2.56083721 85.5230268,4.83118046 C86.5957248,5.0946055 87.6788665,4.43856013 87.9422916,3.36586212 C88.2057166,2.2931641 87.5496712,1.21002236 86.4769732,0.94659732 C75.7403633,-1.69001789 63.3120996,1.88699832 58.3697546,8.84142326 C57.7298904,9.74178291 57.9410636,10.9903811 58.8414233,11.6302454 C59.7417829,12.2701096 60.9903811,12.0589364 61.6302454,11.1585767 Z" transform="matrix(-1 0 0 1 146 0)"/>
        </g>
      </g>
      <mask id="joelle-j" fill="#fff">
        <use xlink:href="#joelle-i"/>
      </mask>
      <g mask="url(#joelle-j)">
        <g transform="translate(-1)">
          <g transform="translate(59 18)">
            <mask id="joelle-l" fill="#fff">
              <use xlink:href="#joelle-k"/>
            </mask>
            <use fill="#944F23" xlink:href="#joelle-k"/>
            <g fill="#B58143" mask="url(#joelle-l)">
              <rect width="264" height="280" transform="translate(-58 -18)"/>
            </g>
          </g>
          <path fill="#000" fill-opacity=".24" d="M192.506381,99.3351151 C197.3745,101.107702 202.263079,102.071957 207,102.148232 L207,215.608051 C194.525121,205.236892 178.490913,199 161,199 L157,199 L157,180.610951 C174.530782,172.282984 187.048193,155.114792 188.791419,134.867187 C194.569129,134.002364 199,129.018625 199,123 L199,110 C199,105.357474 196.363649,101.3307 192.506381,99.3351151 Z M190.18005,98.4258987 C189.794121,98.3201038 189.400422,98.233095 189,98.1659169 L189,97.9170491 C189.392974,98.0918644 189.786355,98.2614951 190.18005,98.4258987 Z M83,155.245847 C88.6015372,166.317951 97.7726252,175.277407 109,180.610951 L109,199 L105,199 C97.3271796,199 89.9346808,200.200199 83,202.423101 L83,155.245847 Z"/>
        </g>
      </g>
    </g>
  </g>
</svg>
