<svg xmlns="http://www.w3.org/2000/svg" xmlns:xlink="http://www.w3.org/1999/xlink" width="240" height="271" viewBox="0 0 240 271">
  <defs>
    <circle id="mael-a" cx="120" cy="120" r="120"/>
    <path id="mael-c" d="M12,160 L-3.19744231e-14,160 L-3.19744231e-14,-1.42108547e-14 L264,-1.42108547e-14 L264,160 L252,160 C252,226.27417 198.27417,280 132,280 C65.72583,280 12,226.27417 12,160 Z"/>
    <path id="mael-e" d="M124,144.610951 L124,163 L128,163 C167.764502,163 200,195.235498 200,235 L200,244 L0,244 L0,235 C-4.86974701e-15,195.235498 32.235498,163 72,163 L76,163 L76,144.610951 C58.7626345,136.422372 46.3722246,119.687011 44.3051388,99.8812385 C38.4803105,99.0577866 34,94.0521096 34,88 L34,74 C34,68.0540074 38.3245733,63.1180731 44,62.1659169 L44,56 C44,25.072054 69.072054,5.68137151e-15 100,0 C130.927946,-5.68137151e-15 156,25.072054 156,56 L156,62.1659169 C161.675427,63.1180731 166,68.0540074 166,74 L166,88 C166,94.0521096 161.51969,99.0577866 155.694861,99.8812385 C153.627775,119.687011 141.237365,136.422372 124,144.610951 Z"/>
    <path id="mael-g" d="M108,13.0708856 L108,32 C108,45.254834 118.745166,56 132,56 C145.254834,56 156,45.254834 156,32 L156,13.0708856 C173.918699,15.075938 187.720158,20.5518341 187.995797,34.6449676 C213.853567,45.5680933 232,71.1646257 232,100.999485 L232,110 L32,110 L32,100.999485 C32,71.1646257 50.1464329,45.5680933 76.0042027,34.6449832 C76.2798424,20.5518341 90.0813006,15.075938 108,13.0708856 Z"/>
    <rect id="mael-i" width="264" height="280"/>
    <path id="mael-k" d="M90.9102919,55.3613196 L175.085702,55.3613196 C193.333279,44.8338001 196.759397,26.1510357 183.849606,9.92600089 C180.635746,5.88682054 175.085702,21.6755614 158.028596,22.6504878 C140.97149,23.6254143 142.608865,16.3498661 124.45759,19.0739248 C106.306316,21.7979835 108.311575,36.37843 96.4671989,39.8768239 C88.5709482,42.2090865 86.7186458,47.370585 90.9102919,55.3613196 Z"/>
  </defs>
  <g fill="none" fill-rule="evenodd" transform="translate(-12 -9)">
    <g transform="translate(12 40)">
      <mask id="mael-b" fill="#fff">
        <use xlink:href="#mael-a"/>
      </mask>
      <use fill="#E6E6E6" xlink:href="#mael-a"/>
      <g fill="#FF5C5C" mask="url(#mael-b)">
        <rect width="240" height="240"/>
      </g>
    </g>
    <mask id="mael-d" fill="#fff">
      <use xlink:href="#mael-c"/>
    </mask>
    <g mask="url(#mael-d)">
      <g transform="translate(32 36)">
        <mask id="mael-f" fill="#fff">
          <use xlink:href="#mael-e"/>
        </mask>
        <use fill="#D0C6AC" xlink:href="#mael-e"/>
        <g fill="#EDB98A" mask="url(#mael-f)">
          <rect width="264" height="244" transform="translate(-32)"/>
        </g>
        <path fill="#000" fill-opacity=".1" d="M156,94 L156,102 C156,132.927946 130.927946,158 100,158 C69.072054,158 44,132.927946 44,102 L44,94 C44,124.927946 69.072054,150 100,150 C130.927946,150 156,124.927946 156,94 Z" mask="url(#mael-f)"/>
      </g>
      <g transform="translate(0 170)">
        <mask id="mael-h" fill="#fff">
          <use xlink:href="#mael-g"/>
        </mask>
        <use fill="#B7C1DB" xlink:href="#mael-g"/>
        <g fill="#25557C" mask="url(#mael-h)">
          <rect width="264" height="110"/>
        </g>
        <path fill="#F4F4F4" d="M102,61.7390531 L102,110 L95,110 L95,58.1502625 C97.2037542,59.4600576 99.5467694,60.6607878 102,61.7390531 Z M169,58.1502625 L169,98.5 C169,100.432997 167.432997,102 165.5,102 C163.567003,102 162,100.432997 162,98.5 L162,61.7390531 C164.453231,60.6607878 166.796246,59.4600576 169,58.1502625 Z" mask="url(#mael-h)"/>
        <path fill="#000" fill-opacity=".16" d="M131.989815,67.9999995 C98.5309773,67.9967574 65.5,52.0180096 65.5,32.3076923 C65.5,21.2428847 75.9093095,15.5711782 90.9601329,12.7243537 C81.8750795,16.0744598 76,21.7060546 76,31.0769231 C76,51.4665186 103.814501,67.9960167 131.989815,67.9999993 Z M173.039867,12.7243537 C188.09069,15.5711782 198.5,21.2428847 198.5,32.3076923 C198.5,52.0180096 165.469023,67.9967574 132.010185,67.9999995 C160.185499,67.9960167 188,51.4665186 188,31.0769231 C188,21.7060546 182.124921,16.0744598 173.039867,12.7243537 Z" mask="url(#mael-h)"/>
      </g>
      <g fill="#000" transform="translate(76 82)">
        <path fill-opacity=".6" fill-rule="nonzero" d="M40,16 C40,21.371763 46.1581544,25 54,25 C61.8418456,25 68,21.371763 68,16 C68,14.8954305 67.050301,14 66,14 C64.7072748,14 64.1302316,14.9051755 64,16 C62.7575758,18.9378973 59.6832595,20.7163149 54,21 C48.3167405,20.7163149 45.2424242,18.9378973 44,16 C43.8697684,14.9051755 43.2927252,14 42,14 C40.949699,14 40,14.8954305 40,16 Z" transform="translate(2 52)"/>
        <path fill-opacity=".16" d="M16,8 C16,12.418278 21.372583,16 28,16 C34.627417,16 40,12.418278 40,8" transform="translate(28 40)"/>
        <g fill-opacity=".6" transform="translate(0 8)">
          <path d="M27.2409577 20.3455337C27.1600045 20.3443718 27.0788767 20.3437884 26.9975803 20.3437884 23.2572061 20.3437884 19.8737584 21.5787519 17.4375392 23.5716412 16.5467928 24.3002944 15.6201012 23.5583844 16.1601674 22.4473116 18.006676 18.648508 22.1644225 16 26.9975803 16 30.5064735 16 33.898886 17.3173253 36.0253277 19.550585 36.7650456 20.2202109 37.3370199 21.0717264 37.6706873 22.0345685 37.7221152 22.1572512 37.7703692 22.2814477 37.8153518 22.4071242 37.9097825 22.6709538 37.9474218 22.9227843 37.9395713 23.1451894 37.9793961 23.4243919 38 23.7097898 38 24 38 27.3137085 35.3137085 30 32 30 28.6862915 30 26 27.3137085 26 24 26 22.6247092 26.462715 21.3574913 27.2409577 20.3455337zM85.2409577 20.3455337C85.1600045 20.3443718 85.0788767 20.3437884 84.9975803 20.3437884 81.2572061 20.3437884 77.8737584 21.5787519 75.4375392 23.5716412 74.5467928 24.3002944 73.6201012 23.5583844 74.1601674 22.4473116 76.006676 18.648508 80.1644225 16 84.9975803 16 88.5064735 16 91.898886 17.3173253 94.0253277 19.550585 94.7650456 20.2202109 95.3370199 21.0717264 95.6706873 22.0345685 95.7221152 22.1572512 95.7703692 22.2814477 95.8153518 22.4071242 95.9097825 22.6709538 95.9474218 22.9227843 95.9395713 23.1451894 95.9793961 23.4243919 96 23.7097898 96 24 96 27.3137085 93.3137085 30 90 30 86.6862915 30 84 27.3137085 84 24 84 22.6247092 84.462715 21.3574913 85.2409577 20.3455337z"/>
        </g>
        <g fill-opacity=".6" fill-rule="nonzero">
          <path d="M15.5914402,14.1619718 C20.0874642,7.83556966 29.6031809,4.65350252 39.3473715,7.79575991 C40.3986323,8.13476518 41.5256656,7.55736801 41.8646708,6.50610724 C42.2036761,5.45484647 41.6262789,4.32781316 40.5750182,3.98880789 C29.1665516,0.309863172 17.8358054,4.09887835 12.3309495,11.8448183 C11.6910852,12.7451779 11.9022584,13.9937761 12.8026181,14.6336404 C13.7029777,15.2735046 14.9515759,15.0623314 15.5914402,14.1619718 Z"/>
          <path d="M73.6376405,21.1577995 C77.5525501,15.6490895 88.2853148,12.56006 97.5304219,14.8304032 C98.6031199,15.0938282 99.6862617,14.4377829 99.9496867,13.3650849 C100.213112,12.2923868 99.5570664,11.2092451 98.4843684,10.9458201 C87.7477584,8.30920485 75.3194947,11.8862211 70.3771498,18.840646 C69.7372855,19.7410057 69.9484587,20.9896038 70.8488184,21.6294681 C71.749178,22.2693324 72.9977762,22.0581591 73.6376405,21.1577995 Z" transform="matrix(-1 0 0 1 170.015 0)"/>
        </g>
      </g>
      <mask id="mael-j" fill="#fff">
        <use xlink:href="#mael-i"/>
      </mask>
      <g mask="url(#mael-j)">
        <g transform="translate(-1)">
          <mask id="mael-l" fill="#fff">
            <use xlink:href="#mael-k"/>
          </mask>
          <use fill="#252E32" xlink:href="#mael-k"/>
          <g mask="url(#mael-l)">
            <rect width="264" height="280" fill="#B58143" transform="translate(1)"/>
          </g>
        </g>
      </g>
    </g>
  </g>
</svg>
