<svg xmlns="http://www.w3.org/2000/svg" xmlns:xlink="http://www.w3.org/1999/xlink" width="240" height="256" viewBox="0 0 240 256">
  <defs>
    <circle id="sara-a" cx="120" cy="120" r="120"/>
    <path id="sara-c" d="M12,160 L-3.19744231e-14,160 L-3.19744231e-14,-1.42108547e-14 L264,-1.42108547e-14 L264,160 L252,160 C252,226.27417 198.27417,280 132,280 C65.72583,280 12,226.27417 12,160 Z"/>
    <path id="sara-e" d="M124,144.610951 L124,163 L128,163 C167.764502,163 200,195.235498 200,235 L200,244 L0,244 L0,235 C-4.86974701e-15,195.235498 32.235498,163 72,163 L76,163 L76,144.610951 C58.7626345,136.422372 46.3722246,119.687011 44.3051388,99.8812385 C38.4803105,99.0577866 34,94.0521096 34,88 L34,74 C34,68.0540074 38.3245733,63.1180731 44,62.1659169 L44,56 C44,25.072054 69.072054,5.68137151e-15 100,0 C130.927946,-5.68137151e-15 156,25.072054 156,56 L156,62.1659169 C161.675427,63.1180731 166,68.0540074 166,74 L166,88 C166,94.0521096 161.51969,99.0577866 155.694861,99.8812385 C153.627775,119.687011 141.237365,136.422372 124,144.610951 Z"/>
    <path id="sara-g" d="M171.319631,29.9364358 C205.706337,35.3665707 232,65.13854 232,101.051724 L232,110 L32,110 L32,101.051724 C32,65.1380521 58.2943778,35.3657617 92.6817711,29.9362145 C93.5835973,35.0053598 96.116393,39.8238432 100.236125,43.5389794 L129.321203,69.7676333 C130.843316,71.1402598 133.156684,71.1402598 134.678797,69.7676333 L163.763875,43.5389794 C164.189462,43.1551884 164.601167,42.7562772 164.998197,42.3430127 C168.414164,38.7873666 170.517305,34.4520434 171.319628,29.9364354 Z"/>
    <rect id="sara-i" width="264" height="280"/>
    <filter id="sara-k" width="101.5%" height="109.8%" x="-.8%" y="-2.4%" filterUnits="objectBoundingBox">
      <feOffset dy="2" in="SourceAlpha" result="shadowOffsetOuter1"/>
      <feColorMatrix in="shadowOffsetOuter1" result="shadowMatrixOuter1" values="0 0 0 0 0   0 0 0 0 0   0 0 0 0 0  0 0 0 0.2 0"/>
      <feMerge>
        <feMergeNode in="shadowMatrixOuter1"/>
        <feMergeNode in="SourceGraphic"/>
      </feMerge>
    </filter>
    <path id="sara-l" d="M175.126419,166.897818 C175.841424,169.13759 176.874789,171.230601 178.55519,172.685954 C180.17619,174.090053 183.068114,173.745469 185.098621,173.802748 C186.770693,173.850632 188.444623,173.856087 190.114529,173.783655 C190.95366,173.747287 191.327571,174.79771 190.648775,175.281705 C190.518773,175.374442 190.388771,175.462634 190.25846,175.543856 C189.20761,176.198779 188.11838,176.802787 187.008721,177.356184 C184.485135,178.614206 181.821334,179.600077 179.02722,180.090436 C177.110792,180.426519 175.211229,180.489668 173.372596,180.266511 C173.858877,180.986862 174.419563,181.642356 175.071506,182.207788 C176.801481,183.708407 179.887821,183.340135 182.054832,183.401352 C183.839313,183.452528 185.625776,183.458358 187.407944,183.380946 C188.303488,183.342078 188.702535,184.464709 187.978106,184.981974 C187.839364,185.081086 187.700623,185.175341 187.561551,185.262145 C186.440057,185.962089 185.2776,186.607617 184.093342,187.199055 C181.400104,188.543555 178.557223,189.597195 175.57527,190.121262 C170.075488,191.087126 164.705859,189.943766 160.380755,186.413279 C159.16361,185.419765 158.027363,184.287616 157,183.053001 L157,180.610951 C163.949635,177.309539 170.111406,172.618864 175.126419,166.897818 Z M81.3150549,151.593977 C86.6484598,164.344483 96.5625107,174.702544 109,180.610951 L109,189.610443 C106.638877,190.402091 104.095212,191.063278 101.273548,191.569729 C92.2609618,193.18734 66.9485528,188.041497 55.8287461,179.588187 C54.9804404,178.942941 55.4105393,177.670743 56.4993303,177.596328 C68.2421528,176.792949 74.2106831,165.300379 79.0058562,156.190972 C79.8051751,154.672522 80.572738,153.13892 81.3150549,151.593977 Z M195.90592,68.6796644 C196.081329,74.1868816 195.28885,79.9070851 194.184533,85.2955724 C193.189889,90.1482867 189.869671,93.9714569 188.837367,98.7289227 C184.809898,85.0481908 169.433037,80.4838679 160.242068,71.1548033 C162.238626,74.9478777 165.29094,78.1026546 167.294435,81.8328914 C158.047309,76.1675881 149.087576,67.953725 145.262273,57.5379012 C144.554691,62.9359795 142.545911,67.9275978 139.15401,72.2035294 C136.142657,76.0002417 131.572444,80.0744315 126.858864,81.5445 C129.286511,76.0372828 131.361358,70.327001 133.266412,64.6190342 C131.249704,67.2357231 124.568637,78.352682 122.891185,81.1086057 C121.234875,83.8298033 119.37772,86.426318 117.383805,88.9120401 C116.450603,90.0751967 115.455298,91.1993278 114.453055,92.302954 C113.869349,92.9458816 113.274082,93.578226 112.665931,94.1980029 C112.450882,94.4169423 110.823641,96.2071517 111.753871,95.0036468 C109.537639,97.8062025 106.276221,99.9826977 103.44325,102.112561 C100.59079,104.256976 97.4833088,106.08125 94.2522818,107.589351 C87.0932166,110.931649 79.7402436,112.148383 71.9327267,110.752066 C73.127556,111.05104 75.6533133,109.906073 76.8887739,109.570058 C78.6980301,109.07761 80.3625987,108.452872 82.0017312,107.546357 C85.2753717,105.735312 88.3514706,103.576015 91.1778346,101.127995 C88.4707222,102.280238 86.2726593,104.461694 83.513684,105.671152 C81.2270908,106.673576 78.9669245,107.196782 76.4817987,107.437218 C71.0203357,107.966046 64.4865987,106.716901 59.7607964,103.849523 C54.2686121,100.517478 51.2186099,94.7989286 49.7717335,88.7129442 C48.0913088,81.6460323 49.1355043,73.6726057 53.0992189,67.6388757 C53.2336661,69.781637 57.5349852,70.703365 61.0154166,70.1662691 C70.6728211,68.675365 76.4180436,32.1184491 101.441738,25.5998777 C121.403017,20.3995724 135.651446,29.4743102 136.862131,30.2568033 C138.299428,31.1854765 138.85043,30.796545 140.483286,30.4052984 C146.829392,28.8846292 153.741035,28.1960616 160.187893,29.4782789 C166.528383,30.7396605 172.606255,34.0244119 177.74696,37.856181 C187.273882,44.9574883 195.508524,56.4379129 195.90592,68.6796644 Z"/>
  </defs>
  <g fill="none" fill-rule="evenodd" transform="translate(-12 -24)">
    <g transform="translate(12 40)">
      <mask id="sara-b" fill="#fff">
        <use xlink:href="#sara-a"/>
      </mask>
      <use fill="#E6E6E6" xlink:href="#sara-a"/>
      <g fill="#FFFFB1" mask="url(#sara-b)">
        <rect width="240" height="240"/>
      </g>
    </g>
    <mask id="sara-d" fill="#fff">
      <use xlink:href="#sara-c"/>
    </mask>
    <g mask="url(#sara-d)">
      <g transform="translate(32 36)">
        <mask id="sara-f" fill="#fff">
          <use xlink:href="#sara-e"/>
        </mask>
        <use fill="#D0C6AC" xlink:href="#sara-e"/>
        <g fill="#EDB98A" mask="url(#sara-f)">
          <rect width="264" height="244" transform="translate(-32)"/>
        </g>
        <path fill="#000" fill-opacity=".1" d="M156,94 L156,102 C156,132.927946 130.927946,158 100,158 C69.072054,158 44,132.927946 44,102 L44,94 C44,124.927946 69.072054,150 100,150 C130.927946,150 156,124.927946 156,94 Z" mask="url(#sara-f)"/>
      </g>
      <g transform="translate(0 170)">
        <mask id="sara-h" fill="#fff">
          <use xlink:href="#sara-g"/>
        </mask>
        <use fill="#E6E6E6" xlink:href="#sara-g"/>
        <g fill="#25557C" mask="url(#sara-h)">
          <rect width="264" height="110"/>
        </g>
      </g>
      <g fill="#000" transform="translate(76 82)">
        <path fill-opacity=".6" fill-rule="nonzero" d="M40,16 C40,21.371763 46.1581544,25 54,25 C61.8418456,25 68,21.371763 68,16 C68,14.8954305 67.050301,14 66,14 C64.7072748,14 64.1302316,14.9051755 64,16 C62.7575758,18.9378973 59.6832595,20.7163149 54,21 C48.3167405,20.7163149 45.2424242,18.9378973 44,16 C43.8697684,14.9051755 43.2927252,14 42,14 C40.949699,14 40,14.8954305 40,16 Z" transform="translate(2 52)"/>
        <path fill-opacity=".16" d="M16,8 C16,12.418278 21.372583,16 28,16 C34.627417,16 40,12.418278 40,8" transform="translate(28 40)"/>
        <g fill-opacity=".6" transform="translate(0 8)">
          <circle cx="30" cy="22" r="6"/>
          <circle cx="82" cy="22" r="6"/>
        </g>
        <g fill-opacity=".6" transform="translate(12 6)">
          <path fill-rule="nonzero" d="M3.63024536,11.1585767 C7.54515501,5.64986673 18.2779197,2.56083721 27.5230268,4.83118046 C28.5957248,5.0946055 29.6788665,4.43856013 29.9422916,3.36586212 C30.2057166,2.2931641 29.5496712,1.21002236 28.4769732,0.94659732 C17.7403633,-1.69001789 5.31209962,1.88699832 0.369754639,8.84142326 C-0.270109626,9.74178291 -0.0589363917,10.9903811 0.84142326,11.6302454 C1.74178291,12.2701096 2.9903811,12.0589364 3.63024536,11.1585767 Z"/>
          <path fill-rule="nonzero" d="M61.6302454,11.1585767 C65.545155,5.64986673 76.2779197,2.56083721 85.5230268,4.83118046 C86.5957248,5.0946055 87.6788665,4.43856013 87.9422916,3.36586212 C88.2057166,2.2931641 87.5496712,1.21002236 86.4769732,0.94659732 C75.7403633,-1.69001789 63.3120996,1.88699832 58.3697546,8.84142326 C57.7298904,9.74178291 57.9410636,10.9903811 58.8414233,11.6302454 C59.7417829,12.2701096 60.9903811,12.0589364 61.6302454,11.1585767 Z" transform="matrix(-1 0 0 1 146 0)"/>
        </g>
      </g>
      <mask id="sara-j" fill="#fff">
        <use xlink:href="#sara-i"/>
      </mask>
      <g mask="url(#sara-j)">
        <g transform="translate(-1)">
          <g fill="#252C2F" filter="url(#sara-k)" transform="translate(68 92)">
            <path fill-rule="nonzero" d="M34 41L31.2421498 41C17.3147125 41 9 33.3359286 9 20.5 9 10.127 10.8170058 0 32.5299306 0L35.4700694 0C57.1829942 0 59 10.127 59 20.5 59 32.5686429 48.7212748 41 34 41zM32.3853606 6C13 6 13 12.8410159 13 21.5015498 13 28.5719428 16.116254 37 30.9709365 37L34 37C46.3649085 37 55 30.6270373 55 21.5015498 55 12.8410159 55 6 35.6146394 6L32.3853606 6zM96 41L93.2421498 41C79.3147125 41 71 33.3359286 71 20.5 71 10.127 72.8170058 0 94.5299306 0L97.4700694 0C119.182994 0 121 10.127 121 20.5 121 32.5686429 110.721275 41 96 41zM94.3853606 6C75 6 75 12.8410159 75 21.5015498 75 28.5719428 78.1194833 37 92.9709365 37L96 37C108.364909 37 117 30.6270373 117 21.5015498 117 12.8410159 117 6 97.6146394 6L94.3853606 6z"/>
            <path fill-rule="nonzero" d="M2.95454545,5.77156439 C3.64590909,5.09629136 11.2095455,0 32.5,0 C50.3513636,0 54.1302273,1.85267217 59.8502273,4.6518809 L60.2689233,4.85850899 C60.6666014,4.99901896 62.7002447,5.68982981 65.0790606,5.76579519 C67.2462948,5.67278567 69.1000195,5.08540191 69.641698,4.89719767 C76.1703915,1.7220864 82.5610971,0 97.5,0 C118.790455,0 126.354091,5.09629136 127.045455,5.77156439 C128.679318,5.77156439 130,7.06150904 130,8.65734659 L130,11.5431288 C130,13.1389663 128.679318,14.428911 127.045455,14.428911 C127.045455,14.428911 120.143997,14.428911 120.143997,17.3146932 C120.143997,20.2004754 118.181818,13.1389663 118.181818,11.5431288 L118.181818,8.73240251 C114.578575,7.35340151 108.128411,4.78617535 97.5,4.78617535 C85.6584651,4.78617535 79.7610984,6.88602813 74.7022935,8.97112368 L74.7588636,9.10752861 L74.7563667,11.0937608 L72.5391666,16.4436339 L69.8004908,15.3608351 C69.5558969,15.2641292 69.0281396,15.090392 68.2963505,14.9099044 C66.256272,14.4067419 64.1589087,14.253569 62.3040836,14.6343084 C61.6235903,14.7739931 60.9922286,14.9836085 60.4128127,15.266732 L57.7704824,16.5578701 L55.1266751,11.3962031 L55.2440909,9.10175705 L55.3248203,8.90683855 C50.9620526,6.87386374 46.9392639,4.78617535 32.5,4.78617535 C21.8721459,4.78617535 15.422131,7.3524397 11.8181818,8.7314671 L11.8181818,11.5431288 C11.8181818,13.1389663 8.86363636,20.2004754 8.86363636,17.3146932 C8.86363636,14.428911 2.95454545,14.428911 2.95454545,14.428911 C1.32363636,14.428911 0,13.1389663 0,11.5431288 L0,8.65734659 C0,7.06150904 1.32363636,5.77156439 2.95454545,5.77156439 Z"/>
          </g>
          <mask id="sara-m" fill="#fff">
            <use xlink:href="#sara-l"/>
          </mask>
          <use fill="#1D2633" xlink:href="#sara-l"/>
          <g mask="url(#sara-m)">
            <rect width="264" height="280" fill="#4A312C" transform="translate(1)"/>
          </g>
          <path fill="#000" fill-opacity=".16" d="M175.126419,166.897818 C175.841424,169.13759 176.874789,171.230601 178.55519,172.685954 C180.17619,174.090053 183.068114,173.745469 185.098621,173.802748 C186.770693,173.850632 188.444623,173.856087 190.114529,173.783655 C190.95366,173.747287 191.327571,174.79771 190.648775,175.281705 C190.518773,175.374442 190.388771,175.462634 190.25846,175.543856 C189.20761,176.198779 188.11838,176.802787 187.008721,177.356184 C184.485135,178.614206 181.821334,179.600077 179.02722,180.090436 C177.110792,180.426519 175.211229,180.489668 173.372596,180.266511 C173.858877,180.986862 174.419563,181.642356 175.071506,182.207788 C176.801481,183.708407 179.887821,183.340135 182.054832,183.401352 C183.839313,183.452528 185.625776,183.458358 187.407944,183.380946 C188.303488,183.342078 188.702535,184.464709 187.978106,184.981974 C187.839364,185.081086 187.700623,185.175341 187.561551,185.262145 C186.440057,185.962089 185.2776,186.607617 184.093342,187.199055 C181.400104,188.543555 178.557223,189.597195 175.57527,190.121262 C170.075488,191.087126 164.705859,189.943766 160.380755,186.413279 C159.16361,185.419765 158.027363,184.287616 157,183.053001 L157,180.610951 C163.949635,177.309539 170.111406,172.618864 175.126419,166.897818 Z M81.3150549,151.593977 C86.6484598,164.344483 96.5625107,174.702544 109,180.610951 L109,189.610443 C106.638877,190.402091 104.095212,191.063278 101.273548,191.569729 C92.2609618,193.18734 66.9485528,188.041497 55.8287461,179.588187 C54.9804404,178.942941 55.4105393,177.670743 56.4993303,177.596328 C68.2421528,176.792949 74.2106831,165.300379 79.0058562,156.190972 C79.8051751,154.672522 80.572738,153.13892 81.3150549,151.593977 Z"/>
        </g>
      </g>
    </g>
  </g>
</svg>
