<svg xmlns="http://www.w3.org/2000/svg" xmlns:xlink="http://www.w3.org/1999/xlink" width="240" height="260" viewBox="0 0 240 260">
  <defs>
    <circle id="tabita-a" cx="120" cy="120" r="120"/>
    <path id="tabita-c" d="M12,160 L-3.19744231e-14,160 L-3.19744231e-14,-1.42108547e-14 L264,-1.42108547e-14 L264,160 L252,160 C252,226.27417 198.27417,280 132,280 C65.72583,280 12,226.27417 12,160 Z"/>
    <path id="tabita-e" d="M124,144.610951 L124,163 L128,163 C167.764502,163 200,195.235498 200,235 L200,244 L0,244 L0,235 C-4.86974701e-15,195.235498 32.235498,163 72,163 L76,163 L76,144.610951 C58.7626345,136.422372 46.3722246,119.687011 44.3051388,99.8812385 C38.4803105,99.0577866 34,94.0521096 34,88 L34,74 C34,68.0540074 38.3245733,63.1180731 44,62.1659169 L44,56 C44,25.072054 69.072054,5.68137151e-15 100,0 C130.927946,-5.68137151e-15 156,25.072054 156,56 L156,62.1659169 C161.675427,63.1180731 166,68.0540074 166,74 L166,88 C166,94.0521096 161.51969,99.0577866 155.694861,99.8812385 C153.627775,119.687011 141.237365,136.422372 124,144.610951 Z"/>
    <path id="tabita-g" d="M94,29.6883435 L94,74 L170,74 L170,29.6883435 C179.362956,30.9893126 188.149952,34.0907916 196.00002,38.6318143 L196,110 L68,110 L68,38.6318027 C75.8500482,34.0907916 84.6370437,30.9893126 94,29.6883435 Z"/>
    <path id="tabita-i" d="M35.117844,15.1280772 C36.1757121,24.6198025 44.2259873,32 54,32 C63.8042055,32 71.8740075,24.574136 72.8917593,15.0400546 C72.9736685,14.272746 72.1167429,13 71.042767,13 C56.1487536,13 44.7379213,13 37.0868244,13 C36.0066168,13 35.0120058,14.1784435 35.117844,15.1280772 Z"/>
    <rect id="tabita-k" width="264" height="280"/>
    <path id="tabita-m" d="M38,79.3595521 L38,111 C38,133.339168 51.0804213,152.623239 70,161.610951 L70,174.74565 C50.3625813,177.434228 34.6409914,182.163507 23.3845374,181.000327 C9.16164761,179.530612 1.49623627,150.795665 1,126 C0.382878875,95.1640258 29.3189583,30.7950013 40,18 C47.9231015,8.50878211 69.6952966,0.550643437 94.0001685,1 C118.30504,1.44935656 140.861928,6.81215989 149.000169,17 C161.324059,32.4276364 186.868727,91.0786423 187.000169,126 C187.093514,150.800049 177.46255,175.65995 164.000169,177 C152.920532,178.102871 137.475571,175.511343 118,173.997342 L118,161.610951 C136.919579,152.623239 150,133.339168 150,111 L150,82.9882378 C140.478735,78.1305678 131.863294,72.248172 124.153679,65.3410505 C127.362309,70.6368571 130.848786,75.1475352 134.61311,78.8730846 C107.596314,71.2928169 86.1055278,58.4501118 70.1407506,40.3449693 C62.1597317,56.8095313 51.4461487,69.8143919 38.0000014,79.3595511 Z"/>
  </defs>
  <g fill="none" fill-rule="evenodd" transform="translate(-12 -20)">
    <g transform="translate(12 40)">
      <mask id="tabita-b" fill="#fff">
        <use xlink:href="#tabita-a"/>
      </mask>
      <use fill="#E6E6E6" xlink:href="#tabita-a"/>
      <g fill="#A7FFC4" mask="url(#tabita-b)">
        <rect width="240" height="240"/>
      </g>
    </g>
    <mask id="tabita-d" fill="#fff">
      <use xlink:href="#tabita-c"/>
    </mask>
    <g mask="url(#tabita-d)">
      <g transform="translate(32 36)">
        <mask id="tabita-f" fill="#fff">
          <use xlink:href="#tabita-e"/>
        </mask>
        <use fill="#D0C6AC" xlink:href="#tabita-e"/>
        <g fill="#EDB98A" mask="url(#tabita-f)">
          <rect width="264" height="244" transform="translate(-32)"/>
        </g>
        <path fill="#000" fill-opacity=".1" d="M156,94 L156,102 C156,132.927946 130.927946,158 100,158 C69.072054,158 44,132.927946 44,102 L44,94 C44,124.927946 69.072054,150 100,150 C130.927946,150 156,124.927946 156,94 Z" mask="url(#tabita-f)"/>
      </g>
      <g transform="translate(0 170)">
        <mask id="tabita-h" fill="#fff">
          <use xlink:href="#tabita-g"/>
        </mask>
        <use fill="#B7C1DB" xlink:href="#tabita-g"/>
        <g fill="#FF5C5C" mask="url(#tabita-h)">
          <rect width="264" height="110"/>
        </g>
        <circle cx="81" cy="83" r="5" fill="#F4F4F4"/>
        <circle cx="183" cy="83" r="5" fill="#F4F4F4"/>
      </g>
      <g transform="translate(76 82)">
        <g transform="translate(2 52)">
          <mask id="tabita-j" fill="#fff">
            <use xlink:href="#tabita-i"/>
          </mask>
          <use fill="#000" fill-opacity=".7" xlink:href="#tabita-i"/>
          <rect width="31" height="16" x="39" y="2" fill="#FFF" mask="url(#tabita-j)" rx="5"/>
          <g fill="#FF4F6D" mask="url(#tabita-j)">
            <g transform="translate(38 24)">
              <circle cx="11" cy="11" r="11"/>
              <circle cx="21" cy="11" r="11"/>
            </g>
          </g>
        </g>
        <path fill="#000" fill-opacity=".16" d="M16,8 C16,12.418278 21.372583,16 28,16 C34.627417,16 40,12.418278 40,8" transform="translate(28 40)"/>
        <g fill="#000" fill-opacity=".6" transform="translate(0 8)">
          <path d="M16.1601674 22.4473116C18.006676 18.648508 22.1644225 16 26.9975803 16 31.8136766 16 35.9591217 18.629842 37.8153518 22.4071242 38.3667605 23.5291977 37.5821037 24.4474817 36.790607 23.7670228 34.3395063 21.6597833 30.8587163 20.3437884 26.9975803 20.3437884 23.2572061 20.3437884 19.8737584 21.5787519 17.4375392 23.5716412 16.5467928 24.3002944 15.6201012 23.5583844 16.1601674 22.4473116zM74.1601674 22.4473116C76.006676 18.648508 80.1644225 16 84.9975803 16 89.8136766 16 93.9591217 18.629842 95.8153518 22.4071242 96.3667605 23.5291977 95.5821037 24.4474817 94.790607 23.7670228 92.3395063 21.6597833 88.8587163 20.3437884 84.9975803 20.3437884 81.2572061 20.3437884 77.8737584 21.5787519 75.4375392 23.5716412 74.5467928 24.3002944 73.6201012 23.5583844 74.1601674 22.4473116z"/>
        </g>
        <g fill="#000" fill-opacity=".6" transform="translate(12)">
          <path fill-rule="nonzero" d="M3.97579559,17.1279169 C5.47099148,7.60476158 18.0585488,1.10867597 27.1635167,5.30104271 C28.1668367,5.76301969 29.3546946,5.32417444 29.8166716,4.32085442 C30.2786486,3.3175344 29.8398033,2.12967649 28.8364833,1.66769952 C17.3488212,-3.62177466 1.93575948,4.3324746 0.0242044059,16.507492 C-0.147121205,17.5986938 0.598585765,18.6221744 1.68978754,18.7935 C2.78098932,18.9648257 3.80446998,18.2191187 3.97579559,17.1279169 Z"/>
          <path fill-rule="nonzero" d="M61.9757956,17.1279169 C63.4709915,7.60476158 76.0585488,1.10867597 85.1635167,5.30104271 C86.1668367,5.76301969 87.3546946,5.32417444 87.8166716,4.32085442 C88.2786486,3.3175344 87.8398033,2.12967649 86.8364833,1.66769952 C75.3488212,-3.62177466 59.9357595,4.3324746 58.0242044,16.507492 C57.8528788,17.5986938 58.5985858,18.6221744 59.6897875,18.7935 C60.7809893,18.9648257 61.80447,18.2191187 61.9757956,17.1279169 Z" transform="matrix(-1 0 0 1 146 0)"/>
        </g>
      </g>
      <mask id="tabita-l" fill="#fff">
        <use xlink:href="#tabita-k"/>
      </mask>
      <g mask="url(#tabita-l)">
        <g transform="translate(-1)">
          <g transform="translate(39 19)">
            <mask id="tabita-n" fill="#fff">
              <use xlink:href="#tabita-m"/>
            </mask>
            <use fill="#E6E6E6" xlink:href="#tabita-m"/>
            <g fill="#B58143" mask="url(#tabita-n)">
              <rect width="266" height="280" transform="translate(-39 -19)"/>
            </g>
          </g>
        </g>
      </g>
    </g>
  </g>
</svg>
